<svg width="107" height="30" viewBox="0 0 107 30" fill="none" xmlns="http://www.w3.org/2000/svg">
<rect width="30" height="30" rx="6" fill="#EEF9F6"/>
<path fill-rule="evenodd" clip-rule="evenodd" d="M7 25L7 5L10.4951 6.35922V16.2621V25H7ZM14.3786 16.4563V6.94175L17.8738 8.30097V16.8447V23.0583H14.3786V16.4563ZM22.1456 16.2621L25.4466 11.0194L22.1456 9.85437V16.2621Z" fill="#4CBFA4"/>
<path d="M22.1446 16.2618V9.85403L17.8728 16.8443V23.0579L22.1446 16.2618Z" fill="#32A68A"/>
<path d="M10.4941 16.2618V24.9997L14.3776 16.456V6.94141L10.4941 16.2618Z" fill="#32A68A"/>
<path d="M47.3818 23L46.1616 17.9141C46.1001 17.6543 46.0386 17.3604 45.9771 17.0322C45.9155 16.6973 45.854 16.3623 45.7925 16.0273C45.7378 15.6924 45.6899 15.3848 45.6489 15.1045C45.6079 14.8242 45.5771 14.6055 45.5566 14.4482H45.4951C45.4746 14.6055 45.4404 14.8276 45.3926 15.1147C45.3447 15.395 45.29 15.7061 45.2285 16.0479C45.167 16.3896 45.0986 16.7383 45.0234 17.0938C44.9551 17.4424 44.8867 17.7671 44.8184 18.0679L43.6392 23H39.4248L36.2563 11.3823H40.2041L41.1475 15.8428C41.2158 16.1709 41.2842 16.564 41.3525 17.022C41.4277 17.4731 41.4927 17.9346 41.5474 18.4062C41.6089 18.8711 41.6499 19.2881 41.6704 19.6572H41.7319C41.7456 19.377 41.7764 19.0557 41.8242 18.6934C41.8789 18.3242 41.937 17.9585 41.9985 17.5962C42.0669 17.2339 42.1284 16.916 42.1831 16.6426C42.2378 16.3623 42.2754 16.1709 42.2959 16.0684L43.3726 11.3823H47.8022L48.7866 16.1299C48.8481 16.3965 48.9165 16.7383 48.9917 17.1553C49.0737 17.5654 49.1489 17.9961 49.2173 18.4473C49.2925 18.8916 49.3472 19.2949 49.3813 19.6572H49.4429C49.4702 19.2812 49.5112 18.854 49.5659 18.3755C49.6206 17.897 49.6821 17.4321 49.7505 16.981C49.8257 16.5229 49.8975 16.1436 49.9658 15.8428L50.9912 11.3823H54.8569L51.668 23H47.3818ZM60.0273 11.3823V23H56.0181V11.3823H60.0273ZM58.0381 6.70654C58.6123 6.70654 59.1113 6.82617 59.5352 7.06543C59.9658 7.30469 60.1812 7.77979 60.1812 8.49072C60.1812 9.18115 59.9658 9.64941 59.5352 9.89551C59.1113 10.1348 58.6123 10.2544 58.0381 10.2544C57.4502 10.2544 56.9478 10.1348 56.5308 9.89551C56.1206 9.64941 55.9155 9.18115 55.9155 8.49072C55.9155 7.77979 56.1206 7.30469 56.5308 7.06543C56.9478 6.82617 57.4502 6.70654 58.0381 6.70654ZM66.3564 7.04492V13.3203C66.3564 13.792 66.3359 14.3184 66.2949 14.8994C66.2607 15.4736 66.2061 15.9966 66.1309 16.4683H66.2129C66.3701 16.229 66.5684 15.9282 66.8076 15.5659C67.0469 15.2036 67.2622 14.9028 67.4536 14.6636L70.0581 11.3823H74.5288L70.499 16.3247L74.7852 23H70.2017L67.6587 18.8369L66.3564 19.8315V23H62.3267V7.04492H66.3564ZM79.6992 11.3823V23H75.6899V11.3823H79.6992ZM77.71 6.70654C78.2842 6.70654 78.7832 6.82617 79.207 7.06543C79.6377 7.30469 79.853 7.77979 79.853 8.49072C79.853 9.18115 79.6377 9.64941 79.207 9.89551C78.7832 10.1348 78.2842 10.2544 77.71 10.2544C77.1221 10.2544 76.6196 10.1348 76.2026 9.89551C75.7925 9.64941 75.5874 9.18115 75.5874 8.49072C75.5874 7.77979 75.7925 7.30469 76.2026 7.06543C76.6196 6.82617 77.1221 6.70654 77.71 6.70654ZM87.228 11.1772C88.356 11.1772 89.3301 11.3755 90.1504 11.772C90.9707 12.1616 91.603 12.7495 92.0474 13.5356C92.4917 14.3218 92.7139 15.3062 92.7139 16.4888V18.2729H85.5464C85.5806 18.8813 85.8062 19.3804 86.2231 19.77C86.647 20.1597 87.269 20.3545 88.0894 20.3545C88.814 20.3545 89.4771 20.2827 90.0786 20.1392C90.687 19.9956 91.3125 19.7734 91.9551 19.4727V22.354C91.3945 22.6479 90.7827 22.8633 90.1196 23C89.4565 23.1367 88.6191 23.2051 87.6074 23.2051C86.4385 23.2051 85.3926 22.9966 84.4697 22.5796C83.5469 22.1626 82.8188 21.5166 82.2856 20.6416C81.7593 19.7666 81.4961 18.6421 81.4961 17.2681C81.4961 15.8735 81.7354 14.7285 82.2139 13.833C82.6924 12.9307 83.3623 12.2642 84.2236 11.8335C85.085 11.396 86.0864 11.1772 87.228 11.1772ZM87.3716 13.9048C86.8999 13.9048 86.5034 14.0552 86.1821 14.356C85.8677 14.6499 85.6831 15.1147 85.6284 15.7505H89.0737C89.0669 15.4087 88.9985 15.0977 88.8687 14.8174C88.7388 14.5371 88.5474 14.3149 88.2944 14.1509C88.0483 13.9868 87.7407 13.9048 87.3716 13.9048ZM98.0894 23.2051C96.8931 23.2051 95.9087 22.6958 95.1362 21.6772C94.3638 20.6587 93.9775 19.1685 93.9775 17.2065C93.9775 15.2241 94.374 13.7236 95.167 12.7051C95.96 11.6865 96.9854 11.1772 98.2432 11.1772C98.7627 11.1772 99.2104 11.2524 99.5864 11.4028C99.9624 11.5532 100.287 11.7583 100.561 12.0181C100.841 12.271 101.083 12.5581 101.289 12.8794H101.371C101.323 12.5854 101.278 12.1821 101.237 11.6694C101.196 11.1499 101.176 10.644 101.176 10.1519V7.04492H105.216V23H102.191L101.33 21.5337H101.176C100.991 21.8413 100.759 22.1216 100.479 22.3745C100.205 22.6274 99.8701 22.8291 99.4736 22.9795C99.084 23.1299 98.6226 23.2051 98.0894 23.2051ZM99.73 20.0366C100.373 20.0366 100.824 19.835 101.083 19.4316C101.35 19.0215 101.494 18.3994 101.514 17.5654V17.2476C101.514 16.3315 101.384 15.6309 101.125 15.1455C100.872 14.6533 100.393 14.4072 99.689 14.4072C99.2104 14.4072 98.814 14.6396 98.4995 15.1045C98.1851 15.5693 98.0278 16.2905 98.0278 17.2681C98.0278 18.2319 98.1851 18.936 98.4995 19.3804C98.8208 19.8179 99.231 20.0366 99.73 20.0366Z" fill="#C6CADA"/>
</svg>
