<svg width="24" height="24" viewBox="0 0 24 24" fill="none" xmlns="http://www.w3.org/2000/svg">
<path d="M11.5198 14.174L8.36872 11.0229C8.32525 10.9794 8.29102 10.9309 8.26602 10.8773C8.24102 10.8237 8.22852 10.7662 8.22852 10.7049C8.22852 10.5824 8.26995 10.476 8.35282 10.3856C8.43567 10.2952 8.54487 10.25 8.68044 10.25H15.3188C15.4544 10.25 15.5636 10.2956 15.6465 10.3869C15.7293 10.4781 15.7708 10.5846 15.7708 10.7063C15.7708 10.7367 15.724 10.8423 15.6304 11.0231L12.4794 14.174C12.407 14.2464 12.3321 14.2993 12.2548 14.3327C12.1775 14.366 12.0924 14.3827 11.9996 14.3827C11.9069 14.3827 11.8218 14.366 11.7445 14.3327C11.6671 14.2993 11.5923 14.2464 11.5198 14.174Z" fill="#8F95B2"/>
</svg>
