<svg width="24" height="24" viewBox="0 0 24 24" fill="none" xmlns="http://www.w3.org/2000/svg">
<path d="M4.79915 8.39922C4.79915 4.42277 8.0227 1.19922 11.9991 1.19922C15.9756 1.19922 19.1991 4.42277 19.1991 8.39922V10.5964C19.1991 12.2995 19.662 13.9707 20.5383 15.4312L21.2024 16.538C21.6429 17.2721 21.8631 17.6392 21.8782 17.9389C21.9016 18.4031 21.6547 18.8391 21.2446 19.0579C20.9798 19.1992 20.5518 19.1992 19.6957 19.1992H4.3027C3.44658 19.1992 3.01851 19.1992 2.75373 19.0579C2.34363 18.8391 2.09678 18.4032 2.12014 17.9389C2.13522 17.6392 2.35546 17.2721 2.79592 16.538L3.46002 15.4311C4.33628 13.9707 4.79915 12.2996 4.79915 10.5964V8.39922Z" fill="#C6CADA"/>
<path d="M14.82 20.4008C14.9194 20.4008 15.0009 20.4815 14.9916 20.5805C14.938 21.1513 14.6307 21.6903 14.1213 22.0978C13.5587 22.5479 12.7956 22.8008 12 22.8008C11.2044 22.8008 10.4413 22.5479 9.87868 22.0978C9.36927 21.6903 9.06198 21.1513 9.00842 20.5805C8.99913 20.4816 9.08059 20.4008 9.18 20.4008L12 20.4008L14.82 20.4008Z" fill="#474D66"/>
</svg>
