<svg width="24" height="24" viewBox="0 0 24 24" fill="none" xmlns="http://www.w3.org/2000/svg">
<path d="M4.25 20.5C4.0375 20.5 3.85938 20.428 3.71563 20.2842C3.57188 20.1404 3.5 19.9622 3.5 19.7496C3.5 19.537 3.57188 19.3589 3.71563 19.2154C3.85938 19.0718 4.0375 19 4.25 19H19.75C19.9625 19 20.1406 19.0719 20.2843 19.2157C20.4281 19.3595 20.5 19.5377 20.5 19.7503C20.5 19.9629 20.4281 20.141 20.2843 20.2846C20.1406 20.4282 19.9625 20.5 19.75 20.5H4.25ZM4.25 16.625C4.0375 16.625 3.85938 16.553 3.71563 16.4092C3.57188 16.2654 3.5 16.0872 3.5 15.8746C3.5 15.662 3.57188 15.484 3.71563 15.3404C3.85938 15.1968 4.0375 15.125 4.25 15.125H13.75C13.9625 15.125 14.1406 15.1969 14.2843 15.3407C14.4281 15.4845 14.5 15.6627 14.5 15.8753C14.5 16.0879 14.4281 16.266 14.2843 16.4096C14.1406 16.5532 13.9625 16.625 13.75 16.625H4.25ZM4.25 12.75C4.0375 12.75 3.85938 12.6781 3.71563 12.5343C3.57188 12.3904 3.5 12.2122 3.5 11.9997C3.5 11.7871 3.57188 11.609 3.71563 11.4654C3.85938 11.3218 4.0375 11.25 4.25 11.25H19.75C19.9625 11.25 20.1406 11.3219 20.2843 11.4657C20.4281 11.6095 20.5 11.7877 20.5 12.0003C20.5 12.2129 20.4281 12.391 20.2843 12.5346C20.1406 12.6782 19.9625 12.75 19.75 12.75H4.25ZM4.25 8.87498C4.0375 8.87498 3.85938 8.80307 3.71563 8.65925C3.57188 8.51543 3.5 8.33723 3.5 8.12465C3.5 7.91205 3.57188 7.73396 3.71563 7.59038C3.85938 7.44679 4.0375 7.375 4.25 7.375H13.75C13.9625 7.375 14.1406 7.44691 14.2843 7.59073C14.4281 7.73453 14.5 7.91273 14.5 8.12533C14.5 8.33791 14.4281 8.51599 14.2843 8.65958C14.1406 8.80318 13.9625 8.87498 13.75 8.87498H4.25ZM4.25 4.99998C4.0375 4.99998 3.85938 4.92807 3.71563 4.78425C3.57188 4.64045 3.5 4.46225 3.5 4.24965C3.5 4.03707 3.57188 3.85898 3.71563 3.7154C3.85938 3.5718 4.0375 3.5 4.25 3.5H19.75C19.9625 3.5 20.1406 3.57191 20.2843 3.71573C20.4281 3.85954 20.5 4.03774 20.5 4.25033C20.5 4.46293 20.4281 4.64102 20.2843 4.7846C20.1406 4.92818 19.9625 4.99998 19.75 4.99998H4.25Z" fill="#8F95B2"/>
</svg>
