<svg width="32" height="32" viewBox="0 0 32 32" fill="none" xmlns="http://www.w3.org/2000/svg">
<path d="M6.39951 11.1996C6.39951 11.1996 6.39951 11.1996 6.39951 11.1996C6.39951 5.89768 10.6976 1.59961 15.9995 1.59961C15.9995 1.59961 15.9995 1.59961 15.9995 1.59961C15.9995 1.59961 15.9995 1.59961 15.9995 1.59961C21.3014 1.59961 25.5995 5.89768 25.5995 11.1996C25.5995 11.1996 25.5995 11.1996 25.5995 11.1996V14.1291C25.5995 14.9341 25.5995 15.3366 25.6321 15.7313C25.7314 16.9323 26.0559 18.104 26.5887 19.1849C26.7638 19.5401 26.9709 19.8853 27.3851 20.5755L28.2705 22.0513C29.1892 23.5824 29.6485 24.3479 29.3527 24.9377C29.3347 24.9736 29.3149 25.0086 29.2933 25.0425C28.9398 25.5996 28.0471 25.5996 26.2615 25.5996H5.73758C3.95203 25.5996 3.05925 25.5996 2.70578 25.0425C2.68425 25.0086 2.66443 24.9736 2.64641 24.9377C2.35058 24.348 2.8099 23.5824 3.72855 22.0513L4.61402 20.5755C5.02816 19.8852 5.23523 19.5401 5.41032 19.1849C5.94312 18.1039 6.26764 16.9323 6.36689 15.7313C6.39951 15.3366 6.39951 14.9341 6.39951 14.1292V11.1996Z" fill="#C6CADA"/>
<path d="M19.82 27.2004C19.9194 27.2004 20.0007 27.2811 19.9937 27.3803C19.9386 28.1634 19.5254 28.9056 18.8284 29.4631C18.0783 30.0632 17.0609 30.4004 16 30.4004C14.9391 30.4004 13.9217 30.0632 13.1716 29.4631C12.4746 28.9056 12.0614 28.1634 12.0063 27.3803C11.9993 27.2811 12.0806 27.2004 12.18 27.2004L16 27.2004L19.82 27.2004Z" fill="#474D66"/>
</svg>
