<svg width="24" height="24" viewBox="0 0 24 24" fill="none" xmlns="http://www.w3.org/2000/svg">
<path d="M10.0577 18.7493C9.84518 18.7493 9.66705 18.6774 9.5233 18.5336C9.37957 18.3898 9.3077 18.2116 9.3077 17.999C9.3077 17.7864 9.37957 17.6083 9.5233 17.4648C9.66705 17.3212 9.84518 17.2494 10.0577 17.2494H19.75C19.9625 17.2494 20.1406 17.3213 20.2843 17.4651C20.4281 17.6089 20.5 17.7871 20.5 17.9997C20.5 18.2123 20.4281 18.3904 20.2843 18.534C20.1406 18.6775 19.9625 18.7493 19.75 18.7493H10.0577ZM10.0577 12.7493C9.84518 12.7493 9.66705 12.6774 9.5233 12.5336C9.37957 12.3898 9.3077 12.2116 9.3077 11.999C9.3077 11.7864 9.37957 11.6083 9.5233 11.4648C9.66705 11.3212 9.84518 11.2494 10.0577 11.2494H19.75C19.9625 11.2494 20.1406 11.3213 20.2843 11.4651C20.4281 11.6089 20.5 11.7871 20.5 11.9997C20.5 12.2123 20.4281 12.3904 20.2843 12.534C20.1406 12.6775 19.9625 12.7493 19.75 12.7493H10.0577ZM10.0577 6.74934C9.84518 6.74934 9.66705 6.67744 9.5233 6.53364C9.37957 6.38982 9.3077 6.21162 9.3077 5.99904C9.3077 5.78644 9.37957 5.60835 9.5233 5.46476C9.66705 5.32118 9.84518 5.24939 10.0577 5.24939H19.75C19.9625 5.24939 20.1406 5.32129 20.2843 5.46509C20.4281 5.6089 20.5 5.7871 20.5 5.99969C20.5 6.21229 20.4281 6.39038 20.2843 6.53396C20.1406 6.67754 19.9625 6.74934 19.75 6.74934H10.0577ZM5.16345 19.6628C4.706 19.6628 4.3144 19.4999 3.98865 19.1742C3.66288 18.8484 3.5 18.4568 3.5 17.9994C3.5 17.5419 3.66288 17.1503 3.98865 16.8246C4.3144 16.4988 4.706 16.3359 5.16345 16.3359C5.6209 16.3359 6.0125 16.4988 6.33825 16.8246C6.664 17.1503 6.82687 17.5419 6.82687 17.9994C6.82687 18.4568 6.664 18.8484 6.33825 19.1742C6.0125 19.4999 5.6209 19.6628 5.16345 19.6628ZM5.16345 13.6628C4.706 13.6628 4.3144 13.4999 3.98865 13.1742C3.66288 12.8484 3.5 12.4568 3.5 11.9994C3.5 11.5419 3.66288 11.1503 3.98865 10.8246C4.3144 10.4988 4.706 10.3359 5.16345 10.3359C5.6209 10.3359 6.0125 10.4988 6.33825 10.8246C6.664 11.1503 6.82687 11.5419 6.82687 11.9994C6.82687 12.4568 6.664 12.8484 6.33825 13.1742C6.0125 13.4999 5.6209 13.6628 5.16345 13.6628ZM5.16345 7.66279C4.706 7.66279 4.3144 7.49991 3.98865 7.17416C3.66288 6.84841 3.5 6.45681 3.5 5.99936C3.5 5.54191 3.66288 5.15031 3.98865 4.82456C4.3144 4.49881 4.706 4.33594 5.16345 4.33594C5.6209 4.33594 6.0125 4.49881 6.33825 4.82456C6.664 5.15031 6.82687 5.54191 6.82687 5.99936C6.82687 6.45681 6.664 6.84841 6.33825 7.17416C6.0125 7.49991 5.6209 7.66279 5.16345 7.66279Z" fill="#8F95B2"/>
</svg>
