<svg width="24" height="24" viewBox="0 0 24 24" fill="none" xmlns="http://www.w3.org/2000/svg">
<path d="M8.85709 18.625C8.43531 18.625 8.07666 18.4772 7.78114 18.1817C7.48564 17.8862 7.33789 17.5275 7.33789 17.1058V6.8942C7.33789 6.47242 7.48564 6.11377 7.78114 5.81825C8.07666 5.52275 8.43531 5.375 8.85709 5.375H12.1994C13.2186 5.375 14.1401 5.69231 14.9638 6.32693C15.7875 6.96154 16.1994 7.81603 16.1994 8.89038C16.1994 9.63779 16.0189 10.2471 15.658 10.7183C15.2971 11.1894 14.9083 11.5314 14.4917 11.7442C15.0045 11.9211 15.4942 12.2708 15.9609 12.7933C16.4276 13.3157 16.6609 14.0192 16.6609 14.9038C16.6609 16.182 16.1897 17.1217 15.2474 17.723C14.3051 18.3243 13.3558 18.625 12.3994 18.625H8.85709ZM9.48782 16.6327H12.3186C13.1058 16.6327 13.6622 16.4141 13.9879 15.9769C14.3135 15.5397 14.4763 15.1205 14.4763 14.7192C14.4763 14.3179 14.3135 13.8987 13.9879 13.4615C13.6622 13.0243 13.0904 12.8057 12.2725 12.8057H9.48782V16.6327ZM9.48782 10.875H12.0821C12.6898 10.875 13.1715 10.7013 13.5273 10.3539C13.8831 10.0064 14.061 9.59037 14.061 9.10575C14.061 8.59035 13.8728 8.16918 13.4965 7.84225C13.1202 7.51533 12.659 7.35188 12.1128 7.35188H9.48782V10.875Z" fill="#8F95B2"/>
</svg>
