<svg width="24" height="24" viewBox="0 0 24 24" fill="none" xmlns="http://www.w3.org/2000/svg">
<path d="M5.3077 20.5C4.80257 20.5 4.375 20.325 4.025 19.975C3.675 19.625 3.5 19.1974 3.5 18.6923V5.3077C3.5 4.80257 3.675 4.375 4.025 4.025C4.375 3.675 4.80257 3.5 5.3077 3.5H18.6923C19.1974 3.5 19.625 3.675 19.975 4.025C20.325 4.375 20.5 4.80257 20.5 5.3077V18.6923C20.5 19.1974 20.325 19.625 19.975 19.975C19.625 20.325 19.1974 20.5 18.6923 20.5H5.3077ZM5.3077 19H18.6923C18.7692 19 18.8397 18.9679 18.9038 18.9038C18.9679 18.8397 19 18.7692 19 18.6923V5.3077C19 5.23077 18.9679 5.16024 18.9038 5.09613C18.8397 5.03203 18.7692 4.99998 18.6923 4.99998H5.3077C5.23077 4.99998 5.16024 5.03203 5.09612 5.09613C5.03202 5.16024 4.99997 5.23077 4.99997 5.3077V18.6923C4.99997 18.7692 5.03202 18.8397 5.09612 18.9038C5.16024 18.9679 5.23077 19 5.3077 19ZM7.65388 16.75H16.423C16.6038 16.75 16.7377 16.6679 16.8249 16.5038C16.9121 16.3397 16.8987 16.1807 16.7845 16.0269L14.4 12.8327C14.3064 12.7122 14.1859 12.6519 14.0384 12.6519C13.891 12.6519 13.7705 12.7122 13.6769 12.8327L11.2308 16.0192L9.5923 13.9192C9.49872 13.8051 9.37981 13.7481 9.23558 13.7481C9.09134 13.7481 8.97243 13.8083 8.87885 13.9289L7.30195 16.0269C7.18143 16.1807 7.16477 16.3397 7.25195 16.5038C7.33913 16.6679 7.47311 16.75 7.65388 16.75Z" fill="#8F95B2"/>
</svg>
