<svg width="24" height="24" viewBox="0 0 24 24" fill="none" xmlns="http://www.w3.org/2000/svg">
<path d="M6.09568 20.1255C5.88319 20.1255 5.70508 20.0536 5.56133 19.9098C5.41758 19.766 5.3457 19.5878 5.3457 19.3752C5.3457 19.1626 5.41758 18.9845 5.56133 18.8409C5.70508 18.6973 5.88319 18.6255 6.09568 18.6255H17.9034C18.1159 18.6255 18.294 18.6974 18.4377 18.8413C18.5815 18.9851 18.6534 19.1633 18.6534 19.3759C18.6534 19.5884 18.5815 19.7665 18.4377 19.9101C18.294 20.0537 18.1159 20.1255 17.9034 20.1255H6.09568ZM11.9995 16.5294C10.4444 16.5294 9.23064 16.0573 8.3582 15.113C7.48577 14.1688 7.04955 12.9038 7.04955 11.3179V4.33326C7.04955 4.08093 7.14265 3.86465 7.32885 3.68441C7.51504 3.50418 7.73425 3.41406 7.9865 3.41406C8.23877 3.41406 8.45464 3.50418 8.63413 3.68441C8.81361 3.86465 8.90335 4.08093 8.90335 4.33326V11.4102C8.90335 12.4204 9.17194 13.2301 9.70913 13.839C10.2463 14.448 11.0098 14.7525 11.9995 14.7525C12.9893 14.7525 13.7527 14.448 14.2899 13.839C14.8271 13.2301 15.0957 12.4204 15.0957 11.4102V4.33326C15.0957 4.08093 15.1888 3.86465 15.375 3.68441C15.5612 3.50418 15.7804 3.41406 16.0327 3.41406C16.2849 3.41406 16.5008 3.50418 16.6803 3.68441C16.8598 3.86465 16.9495 4.08093 16.9495 4.33326V11.3179C16.9495 12.9038 16.5133 14.1688 15.6409 15.113C14.7684 16.0573 13.5546 16.5294 11.9995 16.5294Z" fill="#8F95B2"/>
</svg>
