<svg width="25" height="25" viewBox="0 0 25 25" fill="none" xmlns="http://www.w3.org/2000/svg">
<path d="M15.1617 12.5003C15.1617 12.6209 15.1425 12.733 15.104 12.8369C15.0656 12.9407 14.9996 13.0394 14.906 13.133L10.4117 17.6272C10.2733 17.7657 10.0993 17.8365 9.88965 17.8397C9.68003 17.843 9.50279 17.7721 9.35792 17.6272C9.21306 17.4824 9.14062 17.3067 9.14062 17.1003C9.14062 16.8939 9.21306 16.7183 9.35792 16.5734L13.431 12.5003L9.35792 8.42724C9.21947 8.28879 9.14864 8.11476 9.14542 7.90514C9.14222 7.69554 9.21306 7.51831 9.35792 7.37344C9.50279 7.22856 9.67843 7.15611 9.88485 7.15611C10.0912 7.15611 10.2669 7.22856 10.4117 7.37344L14.906 11.8677C14.9996 11.9612 15.0656 12.06 15.104 12.1638C15.1425 12.2676 15.1617 12.3798 15.1617 12.5003Z" fill="#8F95B2"/>
</svg>
